<?xml version="1.0" encoding="UTF-8" standalone="no"?>
<svg width="200px" height="187px" viewBox="0 0 200 187" version="1.1" xmlns="http://www.w3.org/2000/svg" xmlns:xlink="http://www.w3.org/1999/xlink" xmlns:sketch="http://www.bohemiancoding.com/sketch/ns">
    <!-- Generator: Sketch 3.0.4 (8053) - http://www.bohemiancoding.com/sketch -->
    <title>arrange</title>
    <desc>Created with Sketch.</desc>
    <defs>
        <linearGradient x1="29.7841592%" y1="0%" x2="78.5272147%" y2="97.0518745%" id="linearGradient-1">
            <stop stop-color="#FFACA0" offset="0%"></stop>
            <stop stop-color="#F37979" offset="100%"></stop>
        </linearGradient>
        <filter x="-50%" y="-50%" width="200%" height="200%" filterUnits="objectBoundingBox" id="filter-2">
            <feOffset dx="0" dy="1" in="SourceAlpha" result="shadowOffsetOuter1"></feOffset>
            <feGaussianBlur stdDeviation="2.5" in="shadowOffsetOuter1" result="shadowBlurOuter1"></feGaussianBlur>
            <feColorMatrix values="0 0 0 0 0.949019608   0 0 0 0 0.419607843   0 0 0 0 0.384313725  0 0 0 0.7 0" in="shadowBlurOuter1" type="matrix" result="shadowMatrixOuter1"></feColorMatrix>
            <feMerge>
                <feMergeNode in="shadowMatrixOuter1"></feMergeNode>
                <feMergeNode in="SourceGraphic"></feMergeNode>
            </feMerge>
        </filter>
    </defs>
    <g id="Page-1" stroke="none" stroke-width="1" fill="none" fill-rule="evenodd" sketch:type="MSPage">
        <g id="arrange" sketch:type="MSLayerGroup" transform="translate(0.000000, -3.000000)">
            <g id="paper" transform="translate(0.000000, 3.217500)" sketch:type="MSShapeGroup">
                <path d="M23.4460548,0 L0.257648953,34.65 L127.020934,34.65 L148.148148,0 L23.4460548,0 Z" id="Rectangle-63" fill="#F26B62"></path>
                <path d="M23.4460548,69.3 L0.257648953,103.95 L127.020934,103.95 L148.148148,69.3 L23.4460548,69.3 Z" id="Rectangle-65" fill="#F26B62"></path>
                <path d="M23.4460548,138.6 L0.257648953,173.25 L127.020934,173.25 L148.148148,138.6 L23.4460548,138.6 Z" id="Rectangle-67" fill="#F26B62"></path>
                <path d="M23.4460548,34.65 L0.257648953,69.3 L127.020934,69.3 L148.148148,34.65 L23.4460548,34.65 Z" id="Rectangle-64" fill="#FFACA0" transform="translate(74.202899, 51.975000) scale(1, -1) translate(-74.202899, -51.975000) "></path>
                <path d="M23.1884058,103.95 L0,138.6 L126.763285,138.6 L147.890499,103.95 L23.1884058,103.95 Z" id="Rectangle-66" fill="#FFACA0" transform="translate(73.945250, 121.275000) scale(1, -1) translate(-73.945250, -121.275000) "></path>
            </g>
            <ellipse id="Oval-39" fill-opacity="0.9" fill="#FFFFFF" sketch:type="MSShapeGroup" cx="160.493827" cy="114.345" rx="39.5061728" ry="39.6"></ellipse>
            <g id="bulb" transform="translate(123.456790, 77.467500)" sketch:type="MSShapeGroup">
                <path d="M43.8181904,73.8291222 C61.0347066,70.6273201 74.0740741,55.4570924 74.0740741,37.2258328 C74.0740741,16.6665731 57.4920278,0 37.037037,0 C16.5820463,0 0,16.6665731 0,37.2258328 C0,46.3507612 3.26649575,54.7088695 8.68831646,61.1833228 C5.84634865,53.7847149 4.62962963,45.0368054 4.62962963,37.2258328 C4.62962963,19.2364805 19.1389201,4.65322911 37.037037,4.65322911 C54.9351539,4.65322911 69.9074074,19.2364805 69.9074074,37.2258328 C69.9074074,50.431599 57.498065,66.3154684 43.8181784,73.8291244 Z" id="Oval-32" fill="#F37979"></path>
                <path d="M30.1386124,12.0444929 C32.3548874,11.4721323 34.6781139,11.1677499 37.0720721,11.1677499 C52.4133151,11.1677499 64.8498498,23.6676797 64.8498498,39.0871245 C64.8498498,54.5065693 52.4133151,67.0064991 37.0720721,67.0064991 C21.730829,67.0064991 9.29429429,54.5065693 9.29429429,39.0871245 C9.29429429,31.0334293 12.6870477,23.7761935 18.1143802,18.6805145 C15.5333386,21.8433977 13.9856523,25.8812773 13.9856523,30.2803017 C13.9856523,40.4258012 22.2178739,49.0352499 32.3728338,49.0352499 C42.5277938,49.0352499 51.0226894,40.4258012 51.0226894,30.2803017 C51.0226894,20.1348022 42.5277938,11.9102499 32.3728338,11.9102499 C31.6165606,11.9102499 30.8709515,11.9558654 30.1386124,12.0444929 Z" id="Oval-33" fill="url(#linearGradient-1)" filter="url(#filter-2)"></path>
                <rect id="Rectangle-53" fill="#F26B62" transform="translate(37.437437, 82.429898) rotate(-20.000000) translate(-37.437437, -82.429898) " x="20.7707708" y="79.7310254" width="33.3333333" height="5.39774576"></rect>
                <rect id="Rectangle-54" fill="#FFACA0" transform="translate(38.918919, 92.015550) rotate(-20.000000) translate(-38.918919, -92.015550) " x="24.1041041" y="89.7820003" width="29.6296296" height="4.46709994"></rect>
                <rect id="Rectangle-55" fill="#FFACA0" transform="translate(39.844845, 100.112169) rotate(-20.000000) translate(-39.844845, -100.112169) " x="26.8818819" y="98.3439418" width="25.9259259" height="3.53645412"></rect>
                <rect id="Rectangle-56" fill="#FFACA0" transform="translate(39.474474, 107.469434) rotate(-20.000000) translate(-39.474474, -107.469434) " x="29.2892893" y="106.16653" width="20.3703704" height="2.6058083"></rect>
            </g>
            <ellipse id="Oval-38" fill="#A87169" sketch:type="MSShapeGroup" cx="24.9382716" cy="5.445" rx="1.2345679" ry="1.2375"></ellipse>
            <g id="key-pair" transform="translate(20.246914, 3.217500)" fill="#FFFFFF" sketch:type="MSShapeGroup">
                <g id="key" transform="translate(0.115005, 1.767857)">
                    <ellipse id="Oval-38" cx="5.12659552" cy="5.63095238" rx="5.12659552" ry="3.14285714"></ellipse>
                    <path d="M5.19067797,4.58333333 C6.42938945,4.58333333 7.43356351,3.55731922 7.43356351,2.29166667 C7.43356351,1.02601412 6.42938945,0 5.19067797,0 C3.95196649,0 2.94779243,1.02601412 2.94779243,2.29166667 C2.94779243,3.55731922 3.95196649,4.58333333 5.19067797,4.58333333 Z M5.19067797,1.52777778 C5.46594718,1.52777778 5.68909698,1.29977464 5.68909698,1.01851852 C5.68909698,0.737262396 5.46594718,0.509259259 5.19067797,0.509259259 C4.91540875,0.509259259 4.69225896,0.737262396 4.69225896,1.01851852 C4.69225896,1.29977464 4.91540875,1.52777778 5.19067797,1.52777778 Z" id="Oval-39"></path>
                    <rect id="Rectangle-68" x="3.84494664" y="8.11904762" width="2.56329776" height="11.7857143"></rect>
                    <polygon id="Triangle-4" transform="translate(5.126596, 21.148810) scale(1, -1) translate(-5.126596, -21.148810) " points="5.12659552 19.9702381 6.4082444 22.3928571 3.84494664 22.3928571 "></polygon>
                    <polygon id="Triangle-5" points="6.4082444 18.9880952 6.79273907 19.25 6.4082444 19.5119048 "></polygon>
                    <polygon id="Triangle-6" points="6.4082444 18.202381 6.79273907 18.4642857 6.4082444 18.7261905 "></polygon>
                    <rect id="Rectangle-69" x="5.76741996" y="10.0833333" width="0.897154216" height="4.32142857"></rect>
                </g>
                <g id="key-2" transform="translate(8.676925, 12.299539) rotate(-20.000000) translate(-8.676925, -12.299539) translate(3.491739, 1.162039)">
                    <ellipse id="Oval-38" cx="5.12659552" cy="5.63095238" rx="5.12659552" ry="3.14285714"></ellipse>
                    <path d="M5.19067797,4.58333333 C6.42938945,4.58333333 7.43356351,3.55731922 7.43356351,2.29166667 C7.43356351,1.02601412 6.42938945,7.91366972e-15 5.19067797,7.91366972e-15 C3.95196649,7.91366972e-15 2.94779243,1.02601412 2.94779243,2.29166667 C2.94779243,3.55731922 3.95196649,4.58333333 5.19067797,4.58333333 Z M5.19067797,1.52777778 C5.46594718,1.52777778 5.68909698,1.29977464 5.68909698,1.01851852 C5.68909698,0.737262396 5.46594718,0.509259259 5.19067797,0.509259259 C4.91540875,0.509259259 4.69225896,0.737262396 4.69225896,1.01851852 C4.69225896,1.29977464 4.91540875,1.52777778 5.19067797,1.52777778 Z" id="Oval-39"></path>
                    <rect id="Rectangle-68" x="3.84494664" y="8.11904762" width="2.56329776" height="11.7857143"></rect>
                    <polygon id="Triangle-4" transform="translate(5.126596, 21.148810) scale(1, -1) translate(-5.126596, -21.148810) " points="5.12659552 19.9702381 6.4082444 22.3928571 3.84494664 22.3928571 "></polygon>
                    <polygon id="Triangle-5" points="6.4082444 18.9880952 6.79273907 19.25 6.4082444 19.5119048 "></polygon>
                    <polygon id="Triangle-6" points="6.4082444 18.202381 6.79273907 18.4642857 6.4082444 18.7261905 "></polygon>
                    <rect id="Rectangle-69" x="5.76741996" y="10.0833333" width="0.897154216" height="4.32142857"></rect>
                </g>
            </g>
            <g id="item" transform="translate(30.123457, 16.335000)" sketch:type="MSShapeGroup">
                <rect id="Rectangle-64" fill-opacity="0.95" fill="#FFFFFF" x="18.0246914" y="-0.000494011976" width="69.6296296" height="5.93802395"></rect>
                <rect id="Rectangle-66" fill-opacity="0.95" fill="#FFFFFF" x="18.0246914" y="70.661991" width="69.6296296" height="5.93802395"></rect>
                <rect id="Rectangle-68" fill-opacity="0.95" fill="#FFFFFF" x="18.0246914" y="141.324476" width="69.6296296" height="5.93802395"></rect>
                <rect id="Rectangle-65" fill-opacity="0.95" fill="#FFFFFF" x="5.18518519" y="32.9555389" width="69.6296296" height="5.93802395"></rect>
                <rect id="Rectangle-67" fill-opacity="0.95" fill="#FFFFFF" x="5.18518519" y="105.696332" width="69.6296296" height="5.93802395"></rect>
                <path d="M11.9753087,9.15750011 L0.123456772,36.0112501 L14.9382716,73.9279042 L0.123456772,109.6425 L14.9382716,143.402784" id="Line" stroke="#FFFFFF" stroke-width="6" stroke-dasharray="10,10"></path>
                <polygon id="Triangle-7" fill="#FFFFFF" transform="translate(13.827160, 5.268885) rotate(24.000000) translate(-13.827160, -5.268885) " points="13.8271605 0.566384731 16.2962963 9.97138473 11.3580247 9.97138473 "></polygon>
            </g>
        </g>
    </g>
</svg>