<?xml version="1.0" encoding="UTF-8" standalone="no"?>
<svg width="169px" height="175px" viewBox="0 0 169 175" version="1.1" xmlns="http://www.w3.org/2000/svg" xmlns:xlink="http://www.w3.org/1999/xlink" xmlns:sketch="http://www.bohemiancoding.com/sketch/ns">
    <!-- Generator: Sketch 3.0.4 (8053) - http://www.bohemiancoding.com/sketch -->
    <title>remind</title>
    <desc>Created with Sketch.</desc>
    <defs>
        <filter x="-50%" y="-50%" width="200%" height="200%" filterUnits="objectBoundingBox" id="filter-1">
            <feOffset dx="1" dy="2" in="SourceAlpha" result="shadowOffsetOuter1"></feOffset>
            <feGaussianBlur stdDeviation="1" in="shadowOffsetOuter1" result="shadowBlurOuter1"></feGaussianBlur>
            <feColorMatrix values="0 0 0 0 0.949019608   0 0 0 0 0.419607843   0 0 0 0 0.384313725  0 0 0 0.7 0" in="shadowBlurOuter1" type="matrix" result="shadowMatrixOuter1"></feColorMatrix>
            <feMerge>
                <feMergeNode in="shadowMatrixOuter1"></feMergeNode>
                <feMergeNode in="SourceGraphic"></feMergeNode>
            </feMerge>
        </filter>
        <filter x="-50%" y="-50%" width="200%" height="200%" filterUnits="objectBoundingBox" id="filter-2">
            <feOffset dx="-1" dy="0" in="SourceAlpha" result="shadowOffsetOuter1"></feOffset>
            <feGaussianBlur stdDeviation="1" in="shadowOffsetOuter1" result="shadowBlurOuter1"></feGaussianBlur>
            <feColorMatrix values="0 0 0 0 0.949019608   0 0 0 0 0.419607843   0 0 0 0 0.384313725  0 0 0 0.7 0" in="shadowBlurOuter1" type="matrix" result="shadowMatrixOuter1"></feColorMatrix>
            <feMerge>
                <feMergeNode in="shadowMatrixOuter1"></feMergeNode>
                <feMergeNode in="SourceGraphic"></feMergeNode>
            </feMerge>
        </filter>
    </defs>
    <g id="Page-1" stroke="none" stroke-width="1" fill="none" fill-rule="evenodd" sketch:type="MSPage">
        <g id="remind" sketch:type="MSLayerGroup" transform="translate(-15.000000, -8.000000)">
            <g id="shadow" transform="translate(23.191734, 14.960317)" fill="#FDE5DF" sketch:type="MSShapeGroup">
                <polygon id="Triangle-2" points="69.0011481 158.694444 68.6567164 119.68254 -0.114810563 119.56746 "></polygon>
                <polygon id="Triangle-3" points="52.238806 0 133.180253 81.9365079 52.1239954 101.384921 "></polygon>
            </g>
            <g id="clock" transform="translate(57.634902, 69.047619)" sketch:type="MSShapeGroup">
                <ellipse id="Oval" fill="#FFACA0" cx="62.771207" cy="62.9475474" rx="50.2169656" ry="50.358038"></ellipse>
                <path d="M43.3162584,10.0884288 C38.9941997,3.98349168 31.8875232,0 23.8530587,0 C10.6793781,0 0,10.7093792 0,23.920068 C0,31.9771034 3.97233238,39.1037444 10.0601672,43.4379449 C15.7733548,28.0462459 27.9676775,15.8176662 43.3162584,10.0884288 Z M115.876952,43.1508262 C121.741213,38.7929015 125.542414,31.8016409 125.542414,23.920068 C125.542414,10.7093792 114.863036,0 101.689355,0 C93.7194124,0 86.6624157,3.91976904 82.3308194,9.94176156 C97.770355,15.5721669 110.069334,27.7619274 115.876952,43.1508262 Z" id="Oval-14" fill="#F26B62"></path>
                <g id="Oval-2-+-Oval-3" transform="translate(12.554241, 12.589509)" fill="#FDE5DF">
                    <path d="M90.9688883,79.7900688 C96.9247212,71.5116959 100.433931,61.3458281 100.433931,50.358038 C100.433931,48.8820938 100.370613,47.4209799 100.246552,45.9772789 L52.2256443,19.6396348 L52.2256443,51.3651987 L90.9688883,79.7900688 Z" id="Oval-2"></path>
                    <path d="M64.5205335,98.6438374 C85.0458194,92.5387549 100.082305,73.6314057 100.42785,51.1497806 L51.4723898,54.386681 L28.1215008,77.8031686 L64.5205335,98.6438374 Z" id="Oval-3"></path>
                </g>
                <path d="M62.8967495,63.0734425 L94.0312682,83.7202381" id="Line" stroke="#F26B62" stroke-width="3" stroke-linecap="square"></path>
                <rect id="Rectangle-29" fill="#FFFFFF" filter="url(#filter-1)" x="61.0136133" y="32.2291443" width="3.76627242" height="33.9916756"></rect>
                <rect id="Rectangle-30" fill="#FFFFFF" filter="url(#filter-2)" transform="translate(51.426983, 77.010250) rotate(-135.000000) translate(-51.426983, -77.010250) " x="49.5438467" y="60.0144124" width="3.76627242" height="33.9916756"></rect>
                <ellipse id="Oval-17" fill="#F26B62" cx="62.8967495" cy="63.0734425" rx="6.90483278" ry="6.92423022"></ellipse>
                <ellipse id="Oval-18" fill="#FFFFFF" cx="62.8967495" cy="63.0734425" rx="3.13856035" ry="3.14737737"></ellipse>
            </g>
            <path d="M29.6287152,17.952381 C29.4718051,18.0788564 29.3161866,18.206869 29.1618829,18.3363958 L29.1618829,130.580185 C34.4088677,134.983266 41.1763844,137.634921 48.564868,137.634921 C65.2412043,137.634921 78.7600459,124.112493 78.7600459,107.449537 L78.7600459,41.4631616 C78.7600459,31.9616871 74.3698472,23.4855439 67.5056842,17.952381 L29.6287152,17.952381 Z" id="Rectangle-34" fill="#FDE5DF" sketch:type="MSShapeGroup"></path>
            <g id="cellphone" transform="translate(15.384615, 8.285714)" sketch:type="MSShapeGroup">
                <rect id="Rectangle-33" fill="#F26B62" x="0" y="0" width="60.3903559" height="126.357143" rx="40"></rect>
                <rect id="Rectangle-34" fill="#FDE5DF" x="4.13318025" y="17.2619048" width="51.6647532" height="92.0634921" rx="5"></rect>
                <g id="Oval-22-+-Oval-21" transform="translate(23.650976, 111.626984)">
                    <ellipse id="Oval-22" fill="#FDE5DF" cx="6.31458094" cy="6.32936508" rx="6.31458094" ry="6.32936508"></ellipse>
                    <ellipse id="Oval-21" fill="#F26B62" cx="6.31458094" cy="6.32936508" rx="5.26215078" ry="5.2744709"></ellipse>
                </g>
                <rect id="Rectangle-35" fill="#FFACA0" x="21.8140069" y="11.047619" width="16.0734788" height="2.76190476" rx="5"></rect>
                <ellipse id="Oval-23" fill="#FFACA0" cx="29.8507463" cy="7.36507937" rx="1.14810563" ry="1.15079365"></ellipse>
                <g id="notification" transform="translate(6.888634, 48.793651)">
                    <rect id="Rectangle-36" fill="#FFACA0" x="2.7554535" y="0" width="41.1021814" height="28.7698413" rx="5"></rect>
                    <path d="M2.7554535,20.7142857 L2.7554535,23.7749494 C2.7554535,26.533552 4.99447432,28.7698413 7.75429596,28.7698413 L38.8587924,28.7698413 C41.6195769,28.7698413 43.8576349,26.5362597 43.8576349,23.7749494 L43.8576349,20.7142857 L2.7554535,20.7142857 Z" id="Rectangle-38" fill-opacity="0.6" fill="#F26B62"></path>
                    <path d="M23.4213548,28.7698413 L7.75429596,28.7698413 C4.99447432,28.7698413 2.7554535,26.533552 2.7554535,23.7749494 L2.7554535,20.7142857 L2.7554535,20.7142857 L23.4213548,20.7142857 L23.4213548,28.7698413 Z" id="Rectangle-39" fill="#FED2C9"></path>
                    <rect id="Rectangle-37" fill="#FFFFFF" x="8.72560276" y="8.51587302" width="29.1618829" height="3.68253968"></rect>
                </g>
            </g>
        </g>
    </g>
</svg>