<?xml version="1.0" encoding="UTF-8" standalone="no"?>
<svg width="203px" height="200px" viewBox="0 0 203 200" version="1.1" xmlns="http://www.w3.org/2000/svg" xmlns:xlink="http://www.w3.org/1999/xlink" xmlns:sketch="http://www.bohemiancoding.com/sketch/ns">
    <!-- Generator: Sketch 3.0.4 (8053) - http://www.bohemiancoding.com/sketch -->
    <title>review</title>
    <desc>Created with Sketch.</desc>
    <defs>
        <filter x="-50%" y="-50%" width="200%" height="200%" filterUnits="objectBoundingBox" id="filter-1">
            <feOffset dx="0" dy="1" in="SourceAlpha" result="shadowOffsetOuter1"></feOffset>
            <feGaussianBlur stdDeviation="1" in="shadowOffsetOuter1" result="shadowBlurOuter1"></feGaussianBlur>
            <feColorMatrix values="0 0 0 0 0.952941176   0 0 0 0 0.474509804   0 0 0 0 0.474509804  0 0 0 0.7 0" in="shadowBlurOuter1" type="matrix" result="shadowMatrixOuter1"></feColorMatrix>
            <feMerge>
                <feMergeNode in="shadowMatrixOuter1"></feMergeNode>
                <feMergeNode in="SourceGraphic"></feMergeNode>
            </feMerge>
        </filter>
        <filter x="-50%" y="-50%" width="200%" height="200%" filterUnits="objectBoundingBox" id="filter-2">
            <feOffset dx="0" dy="1" in="SourceAlpha" result="shadowOffsetOuter1"></feOffset>
            <feGaussianBlur stdDeviation="1" in="shadowOffsetOuter1" result="shadowBlurOuter1"></feGaussianBlur>
            <feColorMatrix values="0 0 0 0 0.952941176   0 0 0 0 0.474509804   0 0 0 0 0.474509804  0 0 0 0.7 0" in="shadowBlurOuter1" type="matrix" result="shadowMatrixOuter1"></feColorMatrix>
            <feMerge>
                <feMergeNode in="shadowMatrixOuter1"></feMergeNode>
                <feMergeNode in="SourceGraphic"></feMergeNode>
            </feMerge>
        </filter>
        <filter x="-50%" y="-50%" width="200%" height="200%" filterUnits="objectBoundingBox" id="filter-3">
            <feOffset dx="0" dy="1" in="SourceAlpha" result="shadowOffsetOuter1"></feOffset>
            <feGaussianBlur stdDeviation="1" in="shadowOffsetOuter1" result="shadowBlurOuter1"></feGaussianBlur>
            <feColorMatrix values="0 0 0 0 0.952941176   0 0 0 0 0.474509804   0 0 0 0 0.474509804  0 0 0 0.7 0" in="shadowBlurOuter1" type="matrix" result="shadowMatrixOuter1"></feColorMatrix>
            <feMerge>
                <feMergeNode in="shadowMatrixOuter1"></feMergeNode>
                <feMergeNode in="SourceGraphic"></feMergeNode>
            </feMerge>
        </filter>
        <filter x="-50%" y="-50%" width="200%" height="200%" filterUnits="objectBoundingBox" id="filter-4">
            <feOffset dx="0" dy="-1" in="SourceAlpha" result="shadowOffsetOuter1"></feOffset>
            <feGaussianBlur stdDeviation="1" in="shadowOffsetOuter1" result="shadowBlurOuter1"></feGaussianBlur>
            <feColorMatrix values="0 0 0 0 0.952941176   0 0 0 0 0.474509804   0 0 0 0 0.474509804  0 0 0 0.7 0" in="shadowBlurOuter1" type="matrix" result="shadowMatrixOuter1"></feColorMatrix>
            <feMerge>
                <feMergeNode in="shadowMatrixOuter1"></feMergeNode>
                <feMergeNode in="SourceGraphic"></feMergeNode>
            </feMerge>
        </filter>
    </defs>
    <g id="Page-1" stroke="none" stroke-width="1" fill="none" fill-rule="evenodd" sketch:type="MSPage">
        <g id="review" sketch:type="MSLayerGroup">
            <rect id="Rectangle-17" fill="#FFACA0" sketch:type="MSShapeGroup" x="43.25" y="0" width="156.75" height="142.25"></rect>
            <rect id="Rectangle-21" fill-opacity="0.6" fill="#F37979" sketch:type="MSShapeGroup" x="147.25" y="64.75" width="17.5" height="77.5"></rect>
            <rect id="Rectangle-22" fill-opacity="0.6" fill="#F37979" sketch:type="MSShapeGroup" x="112.75" y="84.25" width="17.5" height="58"></rect>
            <rect id="Rectangle-24" fill-opacity="0.6" fill="#F37979" sketch:type="MSShapeGroup" x="77.75" y="50.25" width="17.5" height="92"></rect>
            <g id="shadow" transform="translate(3.250000, 0.000000)" fill="#FDE5DF" sketch:type="MSShapeGroup">
                <polygon id="Triangle-1" points="40 0.066653481 40 84.25 13 84.25 "></polygon>
                <path d="M83.125,169.25 L83.125,142.25 L196.577841,142.25 L83.125,169.25 Z" id="Triangle-2"></path>
                <path d="M86.5,142.25 L86.5,100.99698 C86.5,89.9529527 77.5485566,81 66.4921662,81 L40,81 L40,142.25 L86.5,142.25 Z" id="Rectangle-12"></path>
            </g>
            <g id="review_board" transform="translate(0.000000, 84.250000)" sketch:type="MSShapeGroup">
                <rect id="Rectangle-13" fill="#F37979" x="0" y="0" width="86.5" height="115.75" rx="20"></rect>
                <rect id="Rectangle-13" fill="#FDE5DF" x="7.20833333" y="9.62911612" width="72.0833333" height="96.4917678" rx="15"></rect>
                <g id="fix_nail" transform="translate(29.434028, 9.629116)" fill="#F37979">
                    <rect id="Rectangle-15" x="7.20833333" y="2.60788562" width="14.6168981" height="1.60485269" rx="2"></rect>
                    <path d="M7.80902778,6.21880416 L7.80902778,6.51754236 C7.80902778,6.97255979 7.73202461,7.40898888 7.59040496,7.81458902 L7.59040496,7.81458902 C6.25510741,7.70334288 5.20601852,6.58230049 5.20601852,5.21577123 C5.20601852,3.84968389 6.254429,2.72892466 7.58910959,2.61706169 C7.73152762,3.02294806 7.80902778,3.45942424 7.80902778,3.9140001 L7.80902778,4.2127383 C7.25610381,4.2127383 6.80787037,4.66181144 6.80787037,5.21577123 C6.80787037,5.76973102 7.25610381,6.21880416 7.80902778,6.21880416 Z" id="Rectangle-16"></path>
                </g>
                <rect id="Rectangle-14" fill="#F37979" transform="translate(43.250000, 13.139731) scale(1, -1) translate(-43.250000, -13.139731) " x="38.4444444" y="7.82365685" width="9.61111111" height="10.632149" rx="10"></rect>
            </g>
            <path d="M64.25,50.375 L86.25,22.25 L120.75,70 L153.375,45.25 L190.625,28.875" id="Line" stroke="#FFFFFF" stroke-width="16" stroke-linecap="square" filter="url(#filter-1)" sketch:type="MSShapeGroup"></path>
            <g id="point1" transform="translate(81.500000, 16.250000)" sketch:type="MSShapeGroup">
                <circle id="Oval-7" fill="#FFFFFF" filter="url(#filter-2)" cx="5" cy="5" r="5"></circle>
                <circle id="Oval-8" fill="#F88D89" cx="5" cy="5" r="2.5"></circle>
            </g>
            <g id="point3" transform="translate(149.750000, 40.500000)" sketch:type="MSShapeGroup">
                <circle id="Oval-7" fill="#FFFFFF" filter="url(#filter-3)" cx="5" cy="5" r="5"></circle>
                <circle id="Oval-8" fill="#F88D89" cx="5" cy="5" r="2.5"></circle>
            </g>
            <g id="point2" transform="translate(116.250000, 65.750000)" sketch:type="MSShapeGroup">
                <circle id="Oval-7" fill="#FFFFFF" filter="url(#filter-4)" cx="5" cy="5" r="5"></circle>
                <circle id="Oval-8" fill="#F88D89" cx="5" cy="5" r="2.5"></circle>
            </g>
            <g id="Path-4-+-Rectangle-23" transform="translate(17.250000, 117.750000)" fill="#F88D89" sketch:type="MSShapeGroup">
                <path d="M0.0655737705,3.73275862 L0.95797484,5.5393098 C1.97031756,7.58866741 3.90140431,7.7734668 5.27250257,5.95030928 L8.54307107,1.60141486 C9.91357622,-0.220954004 9.71995072,-0.386940915 8.11014154,1.23112993 L5.70543219,3.64818042 C4.09582666,5.26604656 1.50808405,5.23847458 0.0655737705,3.73275862 L0.0655737705,3.73275862 Z" id="Path-4"></path>
                <rect id="Rectangle-23" x="13.25" y="3" width="33" height="3.5" rx="4"></rect>
            </g>
            <g id="Path-5-+-Rectangle-24" transform="translate(17.250000, 131.750000)" fill="#F88D89" sketch:type="MSShapeGroup">
                <path d="M0.0655737705,3.73275862 L0.95797484,5.5393098 C1.97031756,7.58866741 3.90140431,7.7734668 5.27250257,5.95030928 L8.54307107,1.60141486 C9.91357622,-0.220954004 9.71995072,-0.386940915 8.11014154,1.23112993 L5.70543219,3.64818042 C4.09582666,5.26604656 1.50808405,5.23847458 0.0655737705,3.73275862 L0.0655737705,3.73275862 Z" id="Path-5"></path>
                <rect id="Rectangle-24" x="13.25" y="3" width="33" height="3.5" rx="4"></rect>
            </g>
            <g id="Path-6-+-Rectangle-25" transform="translate(17.250000, 145.500000)" fill="#F88D89" sketch:type="MSShapeGroup">
                <path d="M0.0655737705,3.73275862 L0.95797484,5.5393098 C1.97031756,7.58866741 3.90140431,7.7734668 5.27250257,5.95030928 L8.54307107,1.60141486 C9.91357622,-0.220954004 9.71995072,-0.386940915 8.11014154,1.23112993 L5.70543219,3.64818042 C4.09582666,5.26604656 1.50808405,5.23847458 0.0655737705,3.73275862 L0.0655737705,3.73275862 Z" id="Path-6"></path>
                <rect id="Rectangle-25" x="13.25" y="3" width="33" height="3.5" rx="4"></rect>
            </g>
            <g id="Path-7-+-Rectangle-26" transform="translate(17.250000, 159.500000)" fill="#F88D89" sketch:type="MSShapeGroup">
                <path d="M0.0655737705,3.73275862 L0.95797484,5.5393098 C1.97031756,7.58866741 3.90140431,7.7734668 5.27250257,5.95030928 L8.54307107,1.60141486 C9.91357622,-0.220954004 9.71995072,-0.386940915 8.11014154,1.23112993 L5.70543219,3.64818042 C4.09582666,5.26604656 1.50808405,5.23847458 0.0655737705,3.73275862 L0.0655737705,3.73275862 Z" id="Path-7"></path>
                <rect id="Rectangle-26" x="13.25" y="3" width="33" height="3.5" rx="4"></rect>
            </g>
        </g>
    </g>
</svg>